<svg width="16" height="16" viewBox="0 0 16 16" fill="none" xmlns="http://www.w3.org/2000/svg">
<path fill-rule="evenodd" clip-rule="evenodd" d="M1.61526 1.61526C1.79573 1.43471 2.04045 1.33333 2.29556 1.33333H11.2544C11.6226 1.33333 11.9211 1.03486 11.9211 0.666667C11.9211 0.298477 11.6226 0 11.2544 0H2.29556C1.68665 0 1.10273 0.241993 0.672253 0.672654C0.241784 1.1033 0 1.68733 0 2.29624V13.7033C0 14.3122 0.241784 14.8962 0.672253 15.3269C1.10273 15.7575 1.68665 15.9995 2.29556 15.9995H13.6978C14.3067 15.9995 14.8906 15.7575 15.3211 15.3269C15.7515 14.8962 15.9933 14.3122 15.9933 13.7033V7.99976C15.9933 7.63157 15.6949 7.3331 15.3267 7.3331C14.9585 7.3331 14.66 7.63157 14.66 7.99976V13.7033C14.66 13.9588 14.5586 14.2037 14.3781 14.3843C14.1976 14.5648 13.9529 14.6662 13.6978 14.6662H2.29556C2.04045 14.6662 1.79573 14.5648 1.61526 14.3843C1.43478 14.2037 1.33333 13.9588 1.33333 13.7033V2.29624C1.33333 2.04077 1.43478 1.79582 1.61526 1.61526ZM5.29844 7.18543L6.49224 6.50687L7.61402 7.69104L11.3533 3.74381L15.3326 1.48191L8.53233 8.66042L7.61402 9.6298L6.69571 8.66042L5.29844 7.18543Z" fill="#FCFCFC"/>
</svg>
