<svg width="24" height="24" viewBox="0 0 24 24" fill="none" xmlns="http://www.w3.org/2000/svg">
<path fill-rule="evenodd" clip-rule="evenodd" d="M24 12C24 18.6274 18.6274 24 12 24C5.37258 24 0 18.6274 0 12C0 5.37258 5.37258 0 12 0C18.6274 0 24 5.37258 24 12ZM14.4286 12.9H13V18H10.7143V12.9H9V10.5H10.7143V8.82C10.7143 6.9942 11.816 6 13.3674 6C14.1103 6 14.8137 6.0582 15 6.084V8.1H14.1429C13 8.1 13 8.682 13 9.3V10.5H15L14.4286 12.9Z" fill="#FCFCFC"/>
<path d="M12 22C6.47715 22 2 17.5228 2 12H-2C-2 19.732 4.26801 26 12 26V22ZM22 12C22 17.5228 17.5228 22 12 22V26C19.732 26 26 19.732 26 12H22ZM12 2C17.5228 2 22 6.47715 22 12H26C26 4.26801 19.732 -2 12 -2V2ZM12 -2C4.26801 -2 -2 4.26801 -2 12H2C2 6.47715 6.47715 2 12 2V-2Z" fill="#FCFCFC" fill-opacity="0.2"/>
</svg>
